<?xml version="1.0" encoding="utf-8"?>
<!-- Svg Vector Icons : http://www.onlinewebfonts.com/icon -->
<!DOCTYPE svg PUBLIC "-//W3C//DTD SVG 1.1//EN" "http://www.w3.org/Graphics/SVG/1.1/DTD/svg11.dtd">
<svg version="1.1" xmlns="http://www.w3.org/2000/svg" xmlns:xlink="http://www.w3.org/1999/xlink" x="0px" y="0px" viewBox="0 0 1000 1000" enable-background="new 0 0 1000 1000" xml:space="preserve">
<metadata> Svg Vector Icons : http://www.onlinewebfonts.com/icon </metadata>
<g><path d="M846.5,153.5C754,61,630.9,10,500,10c-130.9,0-253.9,51-346.5,143.5C60.9,246.1,10,369.1,10,500s51,253.9,143.5,346.5C246,939.1,369.1,990,500,990c130.9,0,253.9-51,346.5-143.5C939.1,753.9,990,630.9,990,500C990,369.1,939,246.1,846.5,153.5z M500,938.4C258.2,938.4,61.6,741.8,61.6,500C61.6,258.3,258.2,61.6,500,61.6c241.7,0,438.4,196.7,438.4,438.4C938.4,741.8,741.8,938.4,500,938.4L500,938.4z"/><path d="M809.5,474.2H525.8V190.6c0-14.2-11.6-25.8-25.8-25.8c-14.2,0-25.8,11.6-25.8,25.8v283.7H190.5c-14.2,0-25.8,11.6-25.8,25.8c0,14.2,11.6,25.8,25.8,25.8h283.7v283.7c0,14.2,11.6,25.8,25.8,25.8c14.2,0,25.8-11.6,25.8-25.8V525.8h283.7c14.2,0,25.8-11.6,25.8-25.8C835.3,485.8,823.7,474.2,809.5,474.2L809.5,474.2z"/></g>
</svg>